<svg version="1" xmlns="http://www.w3.org/2000/svg" width="1109.333" height="1109.333" viewBox="0 0 832.000000 832.000000"><path d="M207.5 33.4C154.2 43.5 111.6 98.2 99.6 172c-2.9 17.7-3.6 31.3-3.6 66.6 0 19.3-.5 39.8-1 45.5-4.6 45.4-24.1 84-48.5 96-4.1 2-8.6 3.2-14.3 3.9-14.5 1.6-23.2 7.1-28.5 17.9-7.9 16.2-1.3 35.4 14.9 42.8 3 1.4 8.7 2.8 13.6 3.3 5.7.7 10.2 1.9 14.3 3.9 24.4 12 43.9 50.6 48.5 96 .5 5.7 1 26.2 1 45.5 0 51.9 2.6 72.9 12.6 103.2 17.4 52.7 51.1 89.3 92.4 100.6 7.9 2.1 10.4 2.3 35.5 2.3h27l5.5-2.6c6.8-3.3 12.2-8.5 15.7-15.2 2.3-4.5 2.7-6.4 2.7-13.7 0-7.3-.4-9.2-2.7-13.7-3.5-6.7-8.9-11.9-15.7-15.2-5.3-2.5-6.3-2.6-29-3.1l-23.6-.5-6.5-3.2c-24.7-12.2-43.8-49.6-48.8-95.5-.6-5.4-1.1-26-1.1-45.8 0-48-2-67.5-10-95.1-8-27.8-20.3-51.5-37.1-71.5l-7.1-8.4 7.1-8.4c16.8-20 29.1-43.7 37.1-71.5 8-27.6 10-47.1 10-95.1 0-19.8.5-40.4 1.1-45.8 5-45.9 24.1-83.3 48.8-95.5l6.5-3.2L240 96c22.7-.5 23.7-.6 29-3.1 6.8-3.3 12.2-8.5 15.7-15.2 2.3-4.5 2.7-6.4 2.7-13.7 0-7.3-.4-9.2-2.7-13.7-3.5-6.7-8.9-11.9-15.7-15.2-5.4-2.6-5.9-2.6-30-2.8-16.9-.1-26.7.2-31.5 1.1zM567.5 33.3c-9.4 3.1-15.8 8.5-20.2 17-2.3 4.5-2.7 6.4-2.7 13.7 0 7.3.4 9.2 2.7 13.7 3.5 6.7 8.9 11.9 15.7 15.2 5.3 2.5 6.3 2.6 29 3.1l23.6.5 6.5 3.2c24.7 12.2 43.8 49.6 48.8 95.5.6 5.4 1.1 26 1.1 45.8 0 48 2 67.5 10 95.1 8 27.8 20.3 51.5 37.1 71.5l7.1 8.4-7.1 8.4c-16.8 20-29.1 43.7-37.1 71.5-8 27.6-10 47.1-10 95.1 0 19.8-.5 40.4-1.1 45.8-5 45.9-24.1 83.3-48.8 95.5l-6.5 3.2-23.6.5c-22.7.5-23.7.6-29 3.1-6.8 3.3-12.2 8.5-15.7 15.2-2.3 4.5-2.7 6.4-2.7 13.7 0 7.3.4 9.2 2.7 13.7 3.5 6.7 8.9 11.9 15.7 15.2l5.5 2.6h27c25.1 0 27.6-.2 35.5-2.3 41.3-11.3 75-47.9 92.4-100.6 10-30.3 12.6-51.3 12.6-103.2 0-19.3.5-39.8 1-45.5 4.6-45.4 24.1-84 48.5-96 4.1-2 8.6-3.2 14.3-3.9 14.5-1.6 23.2-7.1 28.5-17.9 7.9-16.2 1.3-35.4-14.9-42.8-3-1.4-8.7-2.8-13.6-3.3-5.7-.7-10.2-1.9-14.3-3.9-24.4-12-43.9-50.6-48.5-96-.5-5.7-1-26.2-1-45.5 0-35.3-.7-48.9-3.6-66.6-11.5-70.2-50.3-123-100.9-137.1-7.1-2-10.8-2.2-34-2.5-19.5-.3-27 0-30 .9zM399.2 161.5c-20.5 3.9-38.2 13.4-52.3 28.2-12 12.6-20.3 27.7-24.6 44.9-2.4 9.5-2.4 33.3 0 42.8 8.9 35.7 34.9 62.1 70.7 71.8 12.2 3.3 33.8 3.3 46 0 35.8-9.7 61.7-36 70.7-71.8 2.6-10.3 2.3-34.3-.5-44.5-9.7-35.7-37.4-62.8-72-70.5-9.6-2.2-29.1-2.6-38-.9zm30.7 65.9c11.3 5.8 17.6 16 17.6 28.6 0 12.7-6.2 22.7-17.8 28.7-4.5 2.3-6.4 2.7-13.7 2.7-7.3 0-9.2-.4-13.7-2.7-11.6-6-17.8-16-17.8-28.7 0-6 .5-8.6 2.6-13.1 4.1-8.8 12.2-15.6 21.4-18 5.5-1.5 15.9-.2 21.4 2.5zM408.7 417c-9.4 2.4-17.4 9-21.6 17.9-2.1 4.5-2.6 7-2.5 13.1 0 6.6.9 10.3 7.6 30.5 10.9 33.1 12.3 40.2 12.3 65.5 0 25.3-1.4 32.4-12.3 65.5-6.9 21-7.6 23.7-7.6 31 0 6.7.4 8.8 2.7 13.2 10.1 19.6 35.5 24.1 51 8.9 2-2 4.6-5.5 5.8-7.7 1.9-3.8 12.1-34.5 16.8-50.4 10.8-37.1 10.8-83.9 0-121-4.7-15.9-14.9-46.6-16.8-50.4-6.2-12-22.3-19.4-35.4-16.1z"/></svg>